G04 Layer_Color=20142*
%FSLAX25Y25*%
%MOIN*%
G70*
G01*
G75*
%ADD36R,0.05131X0.05721*%
%ADD37R,0.11824X0.04343*%
%ADD38R,0.03556X0.04147*%
%ADD39R,0.05918X0.07887*%
%ADD40R,0.07887X0.05918*%
%ADD41R,0.03950X0.04737*%
%ADD42R,0.05131X0.03359*%
%ADD43R,0.09304X0.06800*%
%ADD44O,0.06312X0.02178*%
%ADD45R,0.09068X0.06312*%
%ADD46R,0.05524X0.08674*%
%ADD47R,0.13595X0.13595*%
%ADD48R,0.04016X0.01457*%
%ADD49R,0.01457X0.04016*%
%ADD50R,0.05131X0.08674*%
%ADD51R,0.08674X0.05131*%
%ADD52O,0.06706X0.13398*%
%ADD53C,0.02800*%
%ADD54C,0.03000*%
D36*
X407500Y302130D02*
D03*
Y308823D02*
D03*
X370000Y295823D02*
D03*
Y289130D02*
D03*
D37*
X430500Y392476D02*
D03*
Y398146D02*
D03*
Y403815D02*
D03*
Y409484D02*
D03*
Y415154D02*
D03*
X391130D02*
D03*
Y409484D02*
D03*
Y403815D02*
D03*
Y398146D02*
D03*
Y392476D02*
D03*
D38*
X377236Y418476D02*
D03*
X381764D02*
D03*
D39*
X428012Y309476D02*
D03*
X416988D02*
D03*
D40*
X426500Y271965D02*
D03*
Y282988D02*
D03*
D41*
X356453Y418476D02*
D03*
X350547D02*
D03*
X370453D02*
D03*
X364547D02*
D03*
D42*
X428224Y292736D02*
D03*
Y296476D02*
D03*
Y300217D02*
D03*
X418776D02*
D03*
Y292736D02*
D03*
D43*
X350480Y443976D02*
D03*
Y433976D02*
D03*
X383000Y443976D02*
D03*
Y433976D02*
D03*
D44*
X353476Y409433D02*
D03*
Y406874D02*
D03*
Y404315D02*
D03*
Y401756D02*
D03*
Y399197D02*
D03*
Y396638D02*
D03*
Y394079D02*
D03*
Y391520D02*
D03*
X375524Y409433D02*
D03*
Y406874D02*
D03*
Y404315D02*
D03*
Y401756D02*
D03*
Y399197D02*
D03*
Y396638D02*
D03*
Y394079D02*
D03*
Y391520D02*
D03*
D45*
X432913Y431618D02*
D03*
X397087D02*
D03*
Y449335D02*
D03*
X432913D02*
D03*
D46*
X405279Y283236D02*
D03*
X377720D02*
D03*
X387563D02*
D03*
X395437D02*
D03*
D47*
X389500Y302476D02*
D03*
D48*
X380051D02*
D03*
Y300508D02*
D03*
Y298539D02*
D03*
Y296571D02*
D03*
Y304445D02*
D03*
Y306413D02*
D03*
Y308382D02*
D03*
X398949D02*
D03*
Y306413D02*
D03*
Y304445D02*
D03*
Y296571D02*
D03*
Y298539D02*
D03*
Y300508D02*
D03*
Y302476D02*
D03*
D49*
X395406Y293028D02*
D03*
X393437D02*
D03*
X391469D02*
D03*
X389500D02*
D03*
X387531D02*
D03*
X385563D02*
D03*
X383594D02*
D03*
Y311925D02*
D03*
X385563D02*
D03*
X387531D02*
D03*
X389500D02*
D03*
X391469D02*
D03*
X393437D02*
D03*
X395406D02*
D03*
D50*
X423933Y382972D02*
D03*
Y319980D02*
D03*
X368815D02*
D03*
X376689D02*
D03*
X384563D02*
D03*
X392437D02*
D03*
X400311D02*
D03*
X408185D02*
D03*
X416059D02*
D03*
X368815Y382972D02*
D03*
X416059D02*
D03*
X408185D02*
D03*
X400311D02*
D03*
X392437D02*
D03*
X384563D02*
D03*
X376689D02*
D03*
D51*
X431807Y331791D02*
D03*
Y339665D02*
D03*
Y371161D02*
D03*
Y363287D02*
D03*
Y355413D02*
D03*
Y347539D02*
D03*
D52*
X413941Y272500D02*
D03*
X369059D02*
D03*
D53*
X393500Y298476D02*
D03*
Y302476D02*
D03*
Y306476D02*
D03*
X389500D02*
D03*
X385500D02*
D03*
Y302476D02*
D03*
Y298476D02*
D03*
X389500D02*
D03*
Y302476D02*
D03*
D54*
X373847Y295823D02*
D03*
X399500Y289476D02*
D03*
X370130Y283846D02*
D03*
X407500Y297476D02*
D03*
X432500Y309476D02*
D03*
X423500Y296476D02*
D03*
X400311Y377665D02*
D03*
X431413Y427563D02*
D03*
X416059Y377035D02*
D03*
X423933Y376909D02*
D03*
X352476Y389500D02*
D03*
X403500Y450335D02*
D03*
X356500Y444476D02*
D03*
X356453Y422429D02*
D03*
X370453D02*
D03*
X384563Y325413D02*
D03*
X423933Y325043D02*
D03*
X384000Y392476D02*
D03*
Y413976D02*
D03*
X358398Y394079D02*
D03*
X360957Y409433D02*
D03*
X422831Y398146D02*
D03*
X400000Y402976D02*
D03*
X383000Y403476D02*
D03*
X381602Y406874D02*
D03*
X383000Y409976D02*
D03*
X369000Y412976D02*
D03*
X375500Y422976D02*
D03*
X386500Y420976D02*
D03*
X358500Y399976D02*
D03*
X362500Y396638D02*
D03*
X363500Y370476D02*
D03*
X376689Y377787D02*
D03*
X368815Y377661D02*
D03*
X357000Y371476D02*
D03*
X376500D02*
D03*
X371000Y370476D02*
D03*
X357000Y375476D02*
D03*
X368000Y373976D02*
D03*
X372000Y350976D02*
D03*
X374000Y347476D02*
D03*
M02*
