G04 Layer_Color=7318015*
%FSLAX25Y25*%
%MOIN*%
G70*
G01*
G75*
%ADD10R,0.04331X0.04921*%
%ADD11R,0.11024X0.03543*%
%ADD12R,0.02756X0.03347*%
%ADD13R,0.05118X0.07087*%
%ADD14R,0.07087X0.05118*%
%ADD15R,0.03150X0.03937*%
%ADD16R,0.04331X0.02559*%
%ADD17R,0.08504X0.06000*%
%ADD18O,0.05512X0.01378*%
%ADD19R,0.08268X0.05512*%
%ADD20R,0.04724X0.07874*%
%ADD22R,0.03543X0.00984*%
%ADD23R,0.00984X0.03543*%
%ADD24R,0.04331X0.07874*%
%ADD25R,0.07874X0.04331*%
%ADD35R,0.04921X0.04921*%
D10*
X407500Y302130D02*
D03*
Y308823D02*
D03*
X370000Y295823D02*
D03*
Y289130D02*
D03*
D11*
X430500Y392476D02*
D03*
Y398146D02*
D03*
Y403815D02*
D03*
Y409484D02*
D03*
Y415154D02*
D03*
X391130D02*
D03*
Y409484D02*
D03*
Y403815D02*
D03*
Y398146D02*
D03*
Y392476D02*
D03*
D12*
X377236Y418476D02*
D03*
X381764D02*
D03*
D13*
X428012Y309476D02*
D03*
X416988D02*
D03*
D14*
X426500Y271965D02*
D03*
Y282988D02*
D03*
D15*
X356453Y418476D02*
D03*
X350547D02*
D03*
X370453D02*
D03*
X364547D02*
D03*
D16*
X428224Y292736D02*
D03*
Y296476D02*
D03*
Y300217D02*
D03*
X418776D02*
D03*
Y292736D02*
D03*
D17*
X350480Y443976D02*
D03*
Y433976D02*
D03*
X383000Y443976D02*
D03*
Y433976D02*
D03*
D18*
X353476Y409433D02*
D03*
Y406874D02*
D03*
Y404315D02*
D03*
Y401756D02*
D03*
Y399197D02*
D03*
Y396638D02*
D03*
Y394079D02*
D03*
Y391520D02*
D03*
X375524Y409433D02*
D03*
Y406874D02*
D03*
Y404315D02*
D03*
Y401756D02*
D03*
Y399197D02*
D03*
Y396638D02*
D03*
Y394079D02*
D03*
Y391520D02*
D03*
D19*
X432913Y431618D02*
D03*
X397087D02*
D03*
Y449335D02*
D03*
X432913D02*
D03*
D20*
X405279Y283236D02*
D03*
X377720D02*
D03*
X387563D02*
D03*
X395437D02*
D03*
D22*
X380051Y302476D02*
D03*
Y300508D02*
D03*
Y298539D02*
D03*
Y296571D02*
D03*
Y304445D02*
D03*
Y306413D02*
D03*
Y308382D02*
D03*
X398949D02*
D03*
Y306413D02*
D03*
Y304445D02*
D03*
Y296571D02*
D03*
Y298539D02*
D03*
Y300508D02*
D03*
Y302476D02*
D03*
D23*
X395406Y293028D02*
D03*
X393437D02*
D03*
X391469D02*
D03*
X389500D02*
D03*
X387531D02*
D03*
X385563D02*
D03*
X383594D02*
D03*
Y311925D02*
D03*
X385563D02*
D03*
X387531D02*
D03*
X389500D02*
D03*
X391469D02*
D03*
X393437D02*
D03*
X395406D02*
D03*
D24*
X423933Y382972D02*
D03*
Y319980D02*
D03*
X368815D02*
D03*
X376689D02*
D03*
X384563D02*
D03*
X392437D02*
D03*
X400311D02*
D03*
X408185D02*
D03*
X416059D02*
D03*
X368815Y382972D02*
D03*
X416059D02*
D03*
X408185D02*
D03*
X400311D02*
D03*
X392437D02*
D03*
X384563D02*
D03*
X376689D02*
D03*
D25*
X431807Y331791D02*
D03*
Y339665D02*
D03*
Y371161D02*
D03*
Y363287D02*
D03*
Y355413D02*
D03*
Y347539D02*
D03*
D35*
X392551Y305528D02*
D03*
Y299425D02*
D03*
X386449D02*
D03*
Y305528D02*
D03*
M02*
